<svg xmlns="http://www.w3.org/2000/svg" xmlns:xlink="http://www.w3.org/1999/xlink" width="500" zoomAndPan="magnify" viewBox="0 0 375 374.999991" height="500" preserveAspectRatio="xMidYMid meet" version="1.0"><defs><filter x="0%" y="0%" width="100%" height="100%" id="3d692fff5c"><feColorMatrix values="0 0 0 0 1 0 0 0 0 1 0 0 0 0 1 0 0 0 1 0" color-interpolation-filters="sRGB"/></filter><g/><clipPath id="b92517d1af"><path d="M 25.292969 55 L 306 55 L 306 336 L 25.292969 336 Z M 25.292969 55 " clip-rule="nonzero"/></clipPath><clipPath id="be589f0f65"><path d="M 28 31 L 349.613281 31 L 349.613281 371 L 28 371 Z M 28 31 " clip-rule="nonzero"/></clipPath><mask id="b5f99bd368"><g filter="url(#3d692fff5c)"><rect x="-37.5" width="450" fill="#000000" y="-37.499999" height="449.999989" fill-opacity="0.5"/></g></mask><clipPath id="0313fb5338"><path d="M 1 0 L 142.679688 0 L 142.679688 140.878906 L 1 140.878906 Z M 1 0 " clip-rule="nonzero"/></clipPath><clipPath id="b921b71a97"><rect x="0" width="143" y="0" height="141"/></clipPath><clipPath id="8e9a13366c"><path d="M 128 88 L 191 88 L 191 124 L 128 124 Z M 128 88 " clip-rule="nonzero"/></clipPath><clipPath id="531a352eb8"><path d="M 129.609375 85.742188 L 192.058594 93.21875 L 187.917969 127.828125 L 125.46875 120.351562 Z M 129.609375 85.742188 " clip-rule="nonzero"/></clipPath><clipPath id="7a4594f87b"><path d="M 129.609375 85.742188 L 192.058594 93.21875 L 187.917969 127.828125 L 125.46875 120.351562 Z M 129.609375 85.742188 " clip-rule="nonzero"/></clipPath><clipPath id="29db9c8c54"><path d="M 149 95 L 168 95 L 168 105 L 149 105 Z M 149 95 " clip-rule="nonzero"/></clipPath><clipPath id="9a95027f50"><path d="M 129.609375 85.742188 L 192.058594 93.21875 L 187.917969 127.828125 L 125.46875 120.351562 Z M 129.609375 85.742188 " clip-rule="nonzero"/></clipPath><clipPath id="6a2738e85c"><path d="M 129.609375 85.742188 L 192.058594 93.21875 L 187.917969 127.828125 L 125.46875 120.351562 Z M 129.609375 85.742188 " clip-rule="nonzero"/></clipPath></defs><g clip-path="url(#b92517d1af)"><path fill="#ff914d" d="M 305.023438 195.617188 C 305.023438 197.90625 304.96875 200.195312 304.855469 202.484375 C 304.742188 204.769531 304.574219 207.050781 304.351562 209.332031 C 304.125 211.609375 303.847656 213.882812 303.511719 216.148438 C 303.175781 218.410156 302.785156 220.667969 302.335938 222.914062 C 301.890625 225.15625 301.390625 227.390625 300.832031 229.613281 C 300.277344 231.832031 299.667969 234.039062 299 236.230469 C 298.335938 238.421875 297.621094 240.59375 296.847656 242.75 C 296.078125 244.90625 295.253906 247.042969 294.378906 249.15625 C 293.5 251.273438 292.574219 253.367188 291.597656 255.4375 C 290.617188 257.503906 289.589844 259.550781 288.507812 261.570312 C 287.429688 263.589844 286.300781 265.582031 285.125 267.542969 C 283.949219 269.507812 282.722656 271.441406 281.453125 273.347656 C 280.179688 275.25 278.863281 277.121094 277.5 278.960938 C 276.136719 280.800781 274.730469 282.605469 273.277344 284.375 C 271.824219 286.144531 270.328125 287.875 268.792969 289.574219 C 267.253906 291.269531 265.675781 292.925781 264.058594 294.546875 C 262.441406 296.164062 260.78125 297.746094 259.085938 299.28125 C 257.390625 300.820312 255.65625 302.316406 253.886719 303.765625 C 252.121094 305.21875 250.316406 306.628906 248.476562 307.992188 C 246.636719 309.355469 244.765625 310.675781 242.863281 311.945312 C 240.960938 313.21875 239.027344 314.441406 237.0625 315.621094 C 235.101562 316.796875 233.109375 317.925781 231.089844 319.003906 C 229.074219 320.082031 227.027344 321.113281 224.960938 322.09375 C 222.890625 323.070312 220.796875 324 218.683594 324.875 C 216.566406 325.75 214.433594 326.574219 212.277344 327.347656 C 210.121094 328.117188 207.949219 328.835938 205.757812 329.5 C 203.570312 330.164062 201.363281 330.773438 199.144531 331.332031 C 196.921875 331.886719 194.691406 332.390625 192.445312 332.835938 C 190.199219 333.28125 187.945312 333.675781 185.679688 334.011719 C 183.417969 334.347656 181.144531 334.625 178.867188 334.851562 C 176.589844 335.074219 174.308594 335.242188 172.023438 335.355469 C 169.734375 335.46875 167.449219 335.523438 165.160156 335.523438 C 162.871094 335.523438 160.582031 335.46875 158.296875 335.355469 C 156.011719 335.242188 153.726562 335.074219 151.449219 334.851562 C 149.171875 334.625 146.902344 334.347656 144.636719 334.011719 C 142.371094 333.675781 140.117188 333.28125 137.871094 332.835938 C 135.628906 332.390625 133.394531 331.886719 131.175781 331.332031 C 128.953125 330.773438 126.75 330.164062 124.558594 329.5 C 122.367188 328.835938 120.195312 328.117188 118.039062 327.347656 C 115.882812 326.574219 113.75 325.75 111.632812 324.875 C 109.519531 324 107.429688 323.070312 105.359375 322.09375 C 103.289062 321.113281 101.246094 320.082031 99.226562 319.003906 C 97.207031 317.925781 95.21875 316.796875 93.253906 315.621094 C 91.289062 314.441406 89.355469 313.21875 87.453125 311.945312 C 85.550781 310.675781 83.679688 309.355469 81.839844 307.992188 C 80.003906 306.628906 78.199219 305.21875 76.429688 303.765625 C 74.660156 302.316406 72.925781 300.820312 71.230469 299.28125 C 69.535156 297.746094 67.878906 296.164062 66.257812 294.546875 C 64.640625 292.925781 63.0625 291.269531 61.523438 289.574219 C 59.988281 287.875 58.492188 286.144531 57.042969 284.375 C 55.589844 282.605469 54.179688 280.800781 52.816406 278.960938 C 51.453125 277.121094 50.136719 275.25 48.863281 273.347656 C 47.59375 271.441406 46.367188 269.507812 45.191406 267.542969 C 44.015625 265.582031 42.886719 263.589844 41.808594 261.570312 C 40.730469 259.550781 39.699219 257.503906 38.722656 255.4375 C 37.742188 253.367188 36.816406 251.273438 35.941406 249.15625 C 35.0625 247.042969 34.242188 244.90625 33.46875 242.75 C 32.699219 240.59375 31.980469 238.421875 31.316406 236.230469 C 30.652344 234.039062 30.042969 231.832031 29.484375 229.613281 C 28.929688 227.390625 28.425781 225.15625 27.980469 222.914062 C 27.535156 220.667969 27.144531 218.410156 26.808594 216.148438 C 26.472656 213.882812 26.191406 211.609375 25.96875 209.332031 C 25.742188 207.050781 25.574219 204.769531 25.460938 202.484375 C 25.347656 200.195312 25.292969 197.90625 25.292969 195.617188 C 25.292969 193.328125 25.347656 191.039062 25.460938 188.753906 C 25.574219 186.464844 25.742188 184.183594 25.96875 181.90625 C 26.191406 179.625 26.472656 177.355469 26.808594 175.089844 C 27.144531 172.824219 27.535156 170.570312 27.980469 168.324219 C 28.425781 166.078125 28.929688 163.84375 29.484375 161.625 C 30.042969 159.402344 30.652344 157.195312 31.316406 155.003906 C 31.980469 152.8125 32.699219 150.640625 33.46875 148.484375 C 34.242188 146.328125 35.0625 144.195312 35.941406 142.078125 C 36.816406 139.960938 37.742188 137.871094 38.722656 135.800781 C 39.699219 133.730469 40.730469 131.6875 41.808594 129.667969 C 42.886719 127.648438 44.015625 125.65625 45.191406 123.691406 C 46.367188 121.726562 47.59375 119.792969 48.863281 117.890625 C 50.136719 115.988281 51.453125 114.113281 52.816406 112.277344 C 54.179688 110.4375 55.589844 108.632812 57.042969 106.863281 C 58.492188 105.09375 59.988281 103.359375 61.523438 101.664062 C 63.0625 99.964844 64.640625 98.308594 66.257812 96.6875 C 67.878906 95.070312 69.535156 93.492188 71.230469 91.953125 C 72.925781 90.417969 74.660156 88.921875 76.429688 87.46875 C 78.199219 86.015625 80.003906 84.609375 81.839844 83.246094 C 83.679688 81.878906 85.550781 80.5625 87.453125 79.289062 C 89.355469 78.019531 91.289062 76.792969 93.253906 75.617188 C 95.21875 74.4375 97.207031 73.3125 99.226562 72.230469 C 101.246094 71.152344 103.289062 70.125 105.359375 69.144531 C 107.429688 68.164062 109.519531 67.238281 111.632812 66.363281 C 113.75 65.484375 115.882812 64.660156 118.039062 63.890625 C 120.195312 63.117188 122.367188 62.402344 124.558594 61.734375 C 126.75 61.070312 128.953125 60.460938 131.175781 59.90625 C 133.394531 59.347656 135.628906 58.847656 137.871094 58.398438 C 140.117188 57.953125 142.371094 57.5625 144.636719 57.226562 C 146.902344 56.890625 149.171875 56.609375 151.449219 56.386719 C 153.726562 56.160156 156.011719 55.992188 158.296875 55.878906 C 160.582031 55.769531 162.871094 55.710938 165.160156 55.710938 C 167.449219 55.710938 169.734375 55.769531 172.023438 55.878906 C 174.308594 55.992188 176.589844 56.160156 178.867188 56.386719 C 181.144531 56.609375 183.417969 56.890625 185.679688 57.226562 C 187.945312 57.5625 190.199219 57.953125 192.445312 58.398438 C 194.691406 58.847656 196.921875 59.347656 199.144531 59.90625 C 201.363281 60.460938 203.570312 61.070312 205.757812 61.734375 C 207.949219 62.402344 210.121094 63.117188 212.277344 63.890625 C 214.433594 64.660156 216.566406 65.484375 218.683594 66.363281 C 220.796875 67.238281 222.890625 68.164062 224.960938 69.144531 C 227.027344 70.125 229.074219 71.152344 231.089844 72.230469 C 233.109375 73.3125 235.101562 74.4375 237.0625 75.617188 C 239.027344 76.792969 240.960938 78.019531 242.863281 79.289062 C 244.765625 80.5625 246.636719 81.878906 248.476562 83.246094 C 250.316406 84.609375 252.121094 86.015625 253.886719 87.46875 C 255.65625 88.921875 257.390625 90.417969 259.085938 91.953125 C 260.78125 93.492188 262.441406 95.070312 264.058594 96.6875 C 265.675781 98.308594 267.253906 99.964844 268.792969 101.664062 C 270.328125 103.359375 271.824219 105.09375 273.277344 106.863281 C 274.730469 108.632812 276.136719 110.4375 277.5 112.277344 C 278.863281 114.113281 280.179688 115.988281 281.453125 117.890625 C 282.722656 119.792969 283.949219 121.726562 285.125 123.691406 C 286.300781 125.65625 287.429688 127.648438 288.507812 129.667969 C 289.589844 131.6875 290.617188 133.730469 291.597656 135.800781 C 292.574219 137.871094 293.5 139.960938 294.378906 142.078125 C 295.253906 144.195312 296.078125 146.328125 296.847656 148.484375 C 297.621094 150.640625 298.335938 152.8125 299 155.003906 C 299.667969 157.195312 300.277344 159.402344 300.832031 161.625 C 301.390625 163.84375 301.890625 166.078125 302.335938 168.324219 C 302.785156 170.570312 303.175781 172.824219 303.511719 175.089844 C 303.847656 177.355469 304.125 179.625 304.351562 181.90625 C 304.574219 184.183594 304.742188 186.464844 304.855469 188.753906 C 304.96875 191.039062 305.023438 193.328125 305.023438 195.617188 Z M 305.023438 195.617188 " fill-opacity="1" fill-rule="nonzero"/></g><path fill="#ffffff" d="M 160.503906 37.210938 C 162.625 37.871094 166.390625 38.65625 170.375 39.492188 C 178.394531 41.171875 183.816406 42.371094 185.992188 43.691406 C 186.472656 43.984375 186.96875 44.246094 187.460938 44.484375 C 174.941406 32.386719 156.246094 34.75 156.039062 34.78125 C 119.660156 40.464844 118.195312 72.585938 117.492188 88.027344 C 117.453125 88.925781 117.414062 89.757812 117.371094 90.511719 C 116.53125 105.410156 121.894531 137.902344 125.6875 140.894531 C 130.226562 144.472656 148.640625 149.230469 150.917969 148.945312 C 151.78125 148.828125 154.03125 148.75 157.929688 148.625 C 165.117188 148.386719 178.492188 147.953125 181.523438 146.800781 C 185.710938 145.207031 190.269531 139.128906 192.925781 133.8125 C 195.125 129.410156 200.085938 107 202.109375 97.332031 C 191.851562 95.0625 184.996094 88.386719 180.707031 84.199219 C 179.839844 83.347656 179.089844 82.617188 178.472656 82.085938 C 175.859375 79.832031 172.996094 76.246094 170.902344 73.628906 C 170.117188 72.648438 169.238281 71.546875 168.871094 71.171875 C 168.085938 70.882812 164.835938 69.785156 161.6875 68.722656 C 154.550781 66.316406 149.425781 64.578125 148.484375 64.132812 C 147.480469 63.660156 146.792969 62.625 146.546875 61.226562 C 146.277344 59.679688 146.535156 57.535156 147.445312 56.042969 C 146.792969 55.675781 146.113281 55.238281 145.414062 54.714844 C 142.65625 52.652344 142.417969 49.683594 143.058594 47.765625 C 143.40625 46.714844 144.015625 45.871094 144.761719 45.3125 C 144.566406 44.542969 144.546875 43.691406 144.660156 42.941406 C 144.992188 40.757812 146.382812 39.183594 148.386719 38.726562 C 148.589844 38.679688 148.796875 38.675781 149 38.703125 C 150.785156 38.957031 153.289062 39.617188 156.09375 40.46875 C 156.296875 39.515625 156.8125 38.617188 157.640625 37.851562 C 158.40625 37.144531 159.503906 36.898438 160.503906 37.210938 Z M 160.503906 37.210938 " fill-opacity="1" fill-rule="nonzero"/><path fill="#ffffff" d="M 254.609375 256.332031 C 258.433594 244.558594 267.316406 240.597656 270.777344 240.597656 C 271.984375 240.597656 274.601562 241.179688 278.671875 242.148438 C 276.042969 236.445312 270.925781 224.203125 270.070312 213.726562 C 269.113281 201.996094 275.0625 190.324219 277.332031 186.359375 C 274.84375 183.210938 272.292969 179.722656 269.6875 176.007812 C 258.910156 173.050781 245.734375 176.148438 237.757812 178.035156 C 236.523438 178.328125 235.414062 178.589844 234.460938 178.792969 C 227.992188 180.1875 203.730469 175.554688 193.320312 173.441406 C 191.832031 179.382812 184.738281 197.804688 153.96875 201.6875 C 129.851562 204.734375 118.917969 192.160156 115.683594 187.359375 C 109.59375 191.105469 92.019531 201.855469 85.382812 205.292969 C 84.628906 205.683594 83.785156 206.117188 82.863281 206.585938 C 75.328125 210.441406 59.640625 218.464844 57.605469 223.21875 C 56.082031 226.773438 52.28125 238.921875 49.226562 248.679688 C 47.269531 254.929688 45.578125 260.328125 44.765625 262.609375 C 43.773438 265.378906 41.242188 276.421875 38.789062 287.097656 C 36.328125 297.8125 33.785156 308.890625 32.308594 313.90625 C 32.210938 314.238281 32.332031 314.582031 32.617188 314.785156 C 39.273438 319.492188 71.460938 323.21875 85.582031 318.714844 C 83.800781 308.074219 79.246094 301.113281 79.183594 301.019531 L 81.996094 299.132812 C 82.386719 299.710938 91.464844 313.496094 89.367188 332.746094 C 87.746094 347.65625 87.769531 362.710938 87.84375 368.121094 C 132.621094 373.785156 200.777344 378.847656 262.730469 368.988281 C 261.101562 354.917969 251.121094 267.066406 254.609375 256.332031 Z M 254.609375 256.332031 " fill-opacity="1" fill-rule="nonzero"/><path fill="#ffffff" d="M 85.996094 332.378906 C 86.394531 328.738281 86.347656 325.292969 86.03125 322.109375 C 81.332031 323.460938 74.8125 324.054688 67.84375 324.054688 C 61.761719 324.054688 55.339844 323.601562 49.507812 322.808594 C 48 328.957031 42.050781 353.351562 40.617188 360.71875 C 46.363281 361.839844 62.277344 364.792969 84.449219 367.6875 C 84.378906 361.8125 84.402344 347.019531 85.996094 332.378906 Z M 85.996094 332.378906 " fill-opacity="1" fill-rule="nonzero"/><path fill="#ffffff" d="M 185.519531 161.226562 C 185.8125 157.539062 186.660156 151.464844 187.308594 147.074219 C 185.84375 148.351562 184.304688 149.371094 182.726562 149.96875 C 179.441406 151.21875 169.175781 151.648438 158.042969 152.015625 C 154.855469 152.117188 152.105469 152.207031 151.363281 152.304688 C 151.234375 152.324219 151.082031 152.332031 150.902344 152.332031 C 147.839844 152.332031 137.8125 149.859375 130.503906 147.03125 C 130.558594 154.425781 128.761719 173.796875 127.828125 177.84375 C 126.792969 182.332031 122.074219 185.261719 119.328125 186.621094 C 123.046875 191.492188 133.058594 200.90625 153.542969 198.324219 C 180.402344 194.933594 187.78125 180.042969 189.710938 173.765625 C 184.761719 170.953125 185.320312 163.742188 185.519531 161.226562 Z M 185.519531 161.226562 " fill-opacity="1" fill-rule="nonzero"/><path fill="#ffffff" d="M 337.578125 203.605469 C 343.460938 197.375 346.136719 191.691406 345.761719 186.222656 C 345.152344 177.28125 336.28125 170.148438 328.457031 163.855469 C 324.847656 160.953125 321.4375 158.210938 319.054688 155.472656 C 315.683594 151.597656 285.441406 117.304688 262.214844 106.324219 C 241.429688 96.496094 229.03125 83.777344 228.25 82.210938 C 226.574219 78.867188 226.554688 73.9375 226.789062 72.203125 C 226.578125 71.636719 225.855469 70.246094 225.261719 69.109375 C 223.097656 64.945312 221.453125 61.59375 221.585938 59.503906 C 221.65625 58.429688 221.976562 57.132812 222.320312 55.761719 C 222.625 54.550781 223.542969 50.867188 222.953125 50.445312 C 221.457031 49.386719 219.328125 51.015625 219.308594 51.03125 C 216.929688 52.964844 215.464844 55.996094 215.132812 59.59375 C 216.28125 60.558594 217.476562 61.527344 218.628906 62.429688 L 216.542969 65.101562 C 213.542969 62.757812 206.472656 57.046875 205.628906 54.667969 C 204.96875 52.804688 203.519531 51.433594 202.492188 51.089844 C 202.121094 50.96875 201.207031 50.863281 200.046875 50.785156 C 201.484375 51.882812 202.765625 52.886719 203.238281 53.261719 L 201.136719 55.925781 C 197.941406 53.402344 194.152344 50.558594 193.339844 50.171875 C 192.976562 50 192.238281 49.78125 191.453125 49.546875 C 189.496094 48.964844 186.820312 48.164062 184.230469 46.589844 C 182.390625 45.472656 175.34375 43.996094 169.679688 42.8125 C 165.765625 41.992188 162.058594 41.214844 159.757812 40.527344 C 159.375 40.953125 159.351562 41.289062 159.386719 41.511719 C 161.453125 42.183594 163.585938 42.914062 165.648438 43.632812 C 169.789062 45.074219 181.601562 47.515625 181.71875 47.539062 L 181.035156 50.863281 C 180.539062 50.761719 168.882812 48.347656 164.535156 46.835938 C 161.011719 45.609375 152.894531 42.785156 148.878906 42.113281 C 148.574219 42.242188 148.359375 42.457031 148.203125 42.789062 C 147.871094 43.5 147.972656 44.414062 148.09375 44.648438 C 148.066406 44.601562 147.960938 44.453125 147.746094 44.328125 L 147.574219 44.621094 C 149.800781 44.90625 154.789062 46.371094 162.335938 48.636719 C 164.550781 49.304688 166.726562 49.957031 168.644531 50.515625 C 175.863281 52.609375 182.695312 52.410156 182.769531 52.40625 L 182.878906 55.796875 C 182.578125 55.808594 175.429688 56.015625 167.699219 53.769531 C 165.773438 53.210938 163.585938 52.554688 161.359375 51.886719 C 155.839844 50.226562 148.28125 47.957031 146.894531 47.957031 C 146.773438 47.984375 146.371094 48.355469 146.207031 49.074219 C 146.089844 49.589844 145.980469 50.90625 147.441406 51.996094 C 150.480469 54.265625 153.082031 54.609375 153.109375 54.613281 L 153.105469 54.644531 C 154.09375 54.875 155.125 55.195312 156.148438 55.515625 C 156.898438 55.75 157.605469 55.96875 158.132812 56.09375 C 159.960938 56.523438 170.414062 58.15625 175.683594 58.960938 L 175.171875 62.3125 C 174.542969 62.21875 159.773438 59.964844 157.355469 59.394531 C 156.714844 59.242188 155.949219 59.003906 155.140625 58.753906 C 153.847656 58.351562 151.203125 57.527344 150.378906 57.71875 C 149.828125 58.429688 149.667969 60.523438 150.019531 61.105469 C 151.199219 61.605469 158.136719 63.945312 162.773438 65.507812 C 168.492188 67.4375 170.09375 67.984375 170.457031 68.15625 C 171.09375 68.457031 171.625 69.101562 173.550781 71.511719 C 175.558594 74.023438 178.3125 77.464844 180.6875 79.515625 C 181.382812 80.113281 182.167969 80.882812 183.078125 81.773438 C 187.589844 86.183594 195.144531 93.566406 206.519531 94.609375 C 206.75 94.628906 206.976562 94.699219 207.179688 94.808594 C 207.847656 95.175781 223.738281 104.074219 243.058594 130.679688 C 248.714844 138.472656 254.429688 147.121094 259.957031 155.488281 C 273.300781 175.683594 285.902344 194.757812 295.222656 198.429688 L 293.976562 201.582031 C 289.613281 199.863281 284.789062 195.375 279.640625 189.207031 C 277.246094 193.703125 272.65625 203.742188 273.449219 213.449219 C 273.90625 219.054688 275.714844 225.320312 277.65625 230.703125 C 284.027344 230.066406 316.632812 225.78125 337.578125 203.605469 Z M 337.578125 203.605469 " fill-opacity="1" fill-rule="nonzero"/><path fill="#ffffff" d="M 306.011719 227.558594 C 293.890625 232.023438 283.304688 233.527344 278.894531 233.996094 C 280.621094 238.378906 282.238281 241.792969 282.90625 243.15625 C 285.90625 243.863281 288.863281 244.519531 289.816406 244.519531 C 291.886719 244.429688 303.160156 237.945312 306.011719 227.558594 Z M 306.011719 227.558594 " fill-opacity="1" fill-rule="nonzero"/><g clip-path="url(#be589f0f65)"><path fill="#000000" d="M 330.582031 161.214844 C 327.09375 158.40625 323.796875 155.757812 321.613281 153.246094 C 318.191406 149.316406 287.515625 114.53125 263.664062 103.257812 C 243.878906 93.90625 232.121094 81.875 231.253906 80.644531 C 229.941406 77.957031 229.984375 73.386719 230.148438 72.625 C 230.386719 71.671875 229.957031 70.785156 228.269531 67.542969 C 227.089844 65.269531 224.886719 61.03125 224.972656 59.71875 C 225.019531 58.949219 225.308594 57.800781 225.609375 56.582031 C 226.449219 53.234375 227.394531 49.4375 224.914062 47.679688 C 222.015625 45.628906 218.582031 47.253906 217.167969 48.402344 C 214.617188 50.476562 212.882812 53.464844 212.113281 56.980469 C 210.363281 55.402344 209.074219 54.09375 208.824219 53.535156 C 207.882812 50.882812 205.769531 48.609375 203.5625 47.875 C 201.867188 47.308594 196.746094 47.234375 195.015625 47.226562 C 194.941406 47.1875 194.859375 47.140625 194.796875 47.109375 C 194.53125 46.984375 194.21875 46.867188 193.875 46.75 C 180.570312 28.207031 156.597656 31.277344 155.546875 31.425781 C 116.398438 37.539062 114.792969 72.808594 114.105469 87.871094 C 114.066406 88.757812 114.027344 89.578125 113.988281 90.320312 C 113.828125 93.121094 113.917969 96.972656 114.210938 101.332031 C 112.941406 101.8125 111.621094 102.871094 111.28125 104.964844 C 111.027344 106.527344 111.648438 109.507812 112.699219 114.226562 C 113.363281 117.195312 114.113281 120.554688 114.054688 121.796875 C 113.898438 125.257812 115.039062 130.363281 118.636719 131.714844 C 120.085938 137.621094 121.777344 142.128906 123.589844 143.554688 C 124.421875 144.214844 125.640625 144.898438 127.097656 145.585938 C 127.507812 148.335938 125.742188 171.800781 124.527344 177.082031 C 123.765625 180.378906 119.402344 182.914062 117 183.972656 C 116.203125 183.617188 115.246094 183.644531 114.453125 184.132812 C 110.550781 186.535156 90.746094 198.695312 83.824219 202.28125 C 83.074219 202.667969 82.234375 203.097656 81.320312 203.566406 C 69.019531 209.859375 56.8125 216.453125 54.488281 221.882812 C 52.898438 225.597656 49.226562 237.320312 45.988281 247.667969 C 44.042969 253.882812 42.363281 259.253906 41.570312 261.464844 C 40.515625 264.429688 38.070312 275.070312 35.484375 286.335938 C 33.035156 297.003906 30.503906 308.03125 29.054688 312.949219 C 28.550781 314.667969 29.195312 316.515625 30.660156 317.554688 C 33.398438 319.492188 39.164062 321.144531 46.140625 322.300781 C 44.375 329.5 37.757812 356.65625 37.011719 361.621094 L 40.367188 362.125 C 40.417969 361.773438 40.503906 361.296875 40.617188 360.71875 C 42.050781 353.351562 48 328.957031 49.507812 322.808594 C 55.339844 323.601562 61.761719 324.054688 67.847656 324.054688 C 74.8125 324.054688 81.332031 323.460938 86.03125 322.109375 C 86.347656 325.292969 86.394531 328.738281 85.996094 332.378906 C 84.402344 347.019531 84.378906 361.8125 84.449219 367.6875 C 84.46875 369.335938 84.496094 370.285156 84.496094 370.324219 L 87.882812 370.226562 C 87.882812 370.1875 87.863281 369.433594 87.84375 368.121094 C 87.769531 362.710938 87.746094 347.65625 89.367188 332.746094 C 91.464844 313.496094 82.386719 299.710938 81.996094 299.132812 L 79.183594 301.019531 C 79.246094 301.113281 83.800781 308.074219 85.582031 318.714844 C 71.460938 323.21875 39.273438 319.492188 32.617188 314.785156 C 32.332031 314.582031 32.210938 314.238281 32.308594 313.90625 C 33.785156 308.890625 36.328125 297.8125 38.789062 287.097656 C 41.242188 276.421875 43.773438 265.382812 44.765625 262.609375 C 45.578125 260.328125 47.269531 254.929688 49.226562 248.679688 C 52.28125 238.921875 56.082031 226.773438 57.605469 223.21875 C 59.640625 218.464844 75.328125 210.441406 82.863281 206.585938 C 83.785156 206.117188 84.628906 205.683594 85.382812 205.292969 C 92.019531 201.855469 109.59375 191.105469 115.683594 187.359375 C 118.917969 192.160156 129.851562 204.734375 153.96875 201.6875 C 184.738281 197.804688 191.832031 179.382812 193.320312 173.441406 C 203.730469 175.558594 227.992188 180.1875 234.460938 178.792969 C 235.414062 178.589844 236.523438 178.328125 237.757812 178.035156 C 245.734375 176.148438 258.910156 173.050781 269.6875 176.007812 C 272.292969 179.722656 274.84375 183.210938 277.332031 186.359375 C 275.0625 190.324219 269.113281 201.996094 270.070312 213.726562 C 270.925781 224.203125 276.042969 236.445312 278.671875 242.148438 C 274.601562 241.179688 271.984375 240.597656 270.777344 240.597656 C 267.316406 240.597656 258.433594 244.5625 254.609375 256.332031 C 251.121094 267.066406 261.101562 354.917969 262.730469 368.988281 C 262.835938 369.890625 262.90625 370.5 262.9375 370.753906 L 266.304688 370.355469 C 262.96875 341.949219 254.941406 266.28125 257.832031 257.378906 C 261.382812 246.460938 269.441406 243.988281 270.777344 243.988281 C 271.804688 243.988281 276.058594 245.007812 279.476562 245.828125 C 284.890625 247.125 288.289062 247.910156 289.816406 247.910156 C 293.328125 247.910156 307.660156 239.507812 309.785156 226.089844 C 320.023438 221.882812 330.984375 215.527344 340.042969 205.933594 C 346.609375 198.980469 349.585938 192.457031 349.144531 185.992188 C 348.433594 175.570312 338.949219 167.941406 330.582031 161.214844 Z M 156.09375 40.46875 C 153.289062 39.617188 150.785156 38.957031 149 38.703125 C 148.796875 38.675781 148.589844 38.679688 148.386719 38.726562 C 146.382812 39.183594 144.992188 40.757812 144.660156 42.941406 C 144.546875 43.691406 144.566406 44.542969 144.761719 45.3125 C 144.011719 45.871094 143.40625 46.710938 143.054688 47.765625 C 142.417969 49.683594 142.65625 52.652344 145.414062 54.714844 C 146.113281 55.238281 146.792969 55.675781 147.445312 56.042969 C 146.535156 57.535156 146.277344 59.679688 146.546875 61.226562 C 146.792969 62.625 147.480469 63.660156 148.484375 64.132812 C 149.425781 64.578125 154.550781 66.316406 161.6875 68.722656 C 164.835938 69.785156 168.085938 70.882812 168.871094 71.171875 C 169.238281 71.546875 170.117188 72.648438 170.902344 73.628906 C 172.996094 76.246094 175.859375 79.828125 178.472656 82.085938 C 179.089844 82.613281 179.839844 83.347656 180.707031 84.199219 C 184.992188 88.386719 191.851562 95.0625 202.109375 97.332031 C 200.085938 107 195.125 129.410156 192.925781 133.8125 C 190.269531 139.128906 185.710938 145.207031 181.523438 146.800781 C 178.492188 147.953125 165.117188 148.386719 157.929688 148.625 C 154.03125 148.75 151.78125 148.828125 150.917969 148.945312 C 148.640625 149.230469 130.226562 144.472656 125.6875 140.894531 C 121.894531 137.902344 116.53125 105.410156 117.371094 90.511719 C 117.414062 89.757812 117.453125 88.925781 117.492188 88.027344 C 118.195312 72.585938 119.660156 40.464844 156.039062 34.78125 C 156.246094 34.75 174.941406 32.386719 187.460938 44.484375 C 186.96875 44.246094 186.472656 43.984375 185.992188 43.691406 C 183.816406 42.371094 178.394531 41.171875 170.375 39.492188 C 166.390625 38.65625 162.625 37.871094 160.503906 37.210938 C 159.503906 36.898438 158.40625 37.144531 157.640625 37.851562 C 156.8125 38.617188 156.296875 39.515625 156.09375 40.46875 Z M 233.746094 175.480469 C 228.929688 176.515625 209.195312 173.210938 193.757812 170.070312 C 192.804688 169.878906 191.875 170.144531 191.175781 170.707031 C 189.742188 169.777344 188.417969 167.542969 188.898438 161.496094 C 189.335938 156.03125 191.082031 144.757812 191.417969 142.617188 C 193.210938 140.277344 194.769531 137.707031 195.957031 135.328125 C 196.3125 134.625 196.714844 133.550781 197.148438 132.222656 C 197.628906 132.347656 198.070312 132.40625 198.484375 132.40625 C 200.820312 132.40625 202.167969 130.617188 203.144531 129.3125 C 203.335938 129.058594 203.535156 128.796875 203.738281 128.539062 C 205.15625 126.785156 205.671875 123.640625 206.164062 120.601562 C 206.351562 119.46875 206.527344 118.394531 206.722656 117.628906 C 206.878906 117.019531 207.316406 115.96875 207.777344 114.855469 C 209.414062 110.898438 211.449219 105.976562 209.007812 103.429688 C 207.621094 101.988281 206.039062 101.582031 204.660156 101.640625 C 205.007812 100.023438 205.277344 98.734375 205.453125 97.894531 C 205.582031 97.910156 205.703125 97.933594 205.832031 97.949219 C 208.050781 99.273438 222.882812 108.664062 240.316406 132.671875 C 245.929688 140.402344 251.621094 149.023438 257.128906 157.359375 C 260.425781 162.347656 263.679688 167.269531 266.863281 171.925781 C 256.152344 170.210938 244.398438 172.980469 236.976562 174.734375 C 235.769531 175.019531 234.683594 175.277344 233.746094 175.480469 Z M 203.882812 105.222656 C 204.417969 105 205.546875 104.722656 206.5625 105.777344 C 207.472656 106.726562 205.417969 111.6875 204.644531 113.558594 C 204.113281 114.835938 203.65625 115.941406 203.441406 116.785156 C 203.203125 117.699219 203.019531 118.84375 202.820312 120.054688 C 202.457031 122.292969 201.957031 125.351562 201.101562 126.410156 C 200.871094 126.695312 200.652344 126.988281 200.433594 127.277344 C 199.441406 128.597656 199.015625 129.160156 198.132812 128.984375 C 200.058594 122.257812 202.335938 112.28125 203.882812 105.222656 Z M 127.132812 145.628906 C 127.128906 145.621094 127.125 145.609375 127.121094 145.597656 C 127.136719 145.605469 127.148438 145.609375 127.160156 145.617188 Z M 153.542969 198.324219 C 133.058594 200.90625 123.046875 191.492188 119.328125 186.621094 C 122.074219 185.261719 126.792969 182.332031 127.828125 177.84375 C 128.761719 173.796875 130.558594 154.425781 130.503906 147.03125 C 137.8125 149.859375 147.839844 152.332031 150.902344 152.332031 C 151.082031 152.332031 151.234375 152.324219 151.363281 152.304688 C 152.105469 152.207031 154.855469 152.117188 158.042969 152.015625 C 169.175781 151.648438 179.441406 151.21875 182.726562 149.96875 C 184.304688 149.371094 185.84375 148.351562 187.308594 147.074219 C 186.660156 151.464844 185.8125 157.539062 185.519531 161.226562 C 185.320312 163.742188 184.761719 170.953125 189.710938 173.765625 C 187.78125 180.039062 180.402344 194.933594 153.542969 198.324219 Z M 279.640625 189.207031 C 284.789062 195.375 289.613281 199.863281 293.976562 201.585938 L 295.222656 198.429688 C 285.902344 194.757812 273.300781 175.683594 259.957031 155.488281 C 254.433594 147.121094 248.714844 138.472656 243.058594 130.679688 C 223.738281 104.074219 207.847656 95.175781 207.179688 94.808594 C 206.976562 94.699219 206.75 94.628906 206.519531 94.609375 C 195.144531 93.566406 187.589844 86.183594 183.078125 81.773438 C 182.167969 80.882812 181.382812 80.117188 180.6875 79.515625 C 178.3125 77.464844 175.558594 74.023438 173.550781 71.511719 C 171.625 69.101562 171.09375 68.457031 170.457031 68.15625 C 170.09375 67.984375 168.492188 67.4375 162.773438 65.507812 C 158.136719 63.945312 151.199219 61.605469 150.019531 61.105469 C 149.667969 60.523438 149.828125 58.429688 150.378906 57.71875 C 151.203125 57.527344 153.847656 58.351562 155.140625 58.753906 C 155.949219 59.003906 156.714844 59.242188 157.355469 59.394531 C 159.773438 59.964844 174.542969 62.21875 175.171875 62.3125 L 175.683594 58.960938 C 170.414062 58.15625 159.960938 56.523438 158.132812 56.09375 C 157.605469 55.96875 156.898438 55.75 156.148438 55.515625 C 155.125 55.195312 154.09375 54.875 153.105469 54.644531 L 153.109375 54.613281 C 153.082031 54.609375 150.480469 54.265625 147.441406 51.996094 C 145.980469 50.90625 146.089844 49.589844 146.207031 49.074219 C 146.371094 48.355469 146.773438 47.984375 146.894531 47.957031 C 148.28125 47.957031 155.839844 50.230469 161.359375 51.886719 C 163.585938 52.554688 165.773438 53.210938 167.699219 53.773438 C 175.429688 56.015625 182.578125 55.808594 182.878906 55.796875 L 182.769531 52.40625 C 182.695312 52.410156 175.863281 52.609375 168.644531 50.515625 C 166.726562 49.957031 164.550781 49.304688 162.335938 48.636719 C 154.789062 46.371094 149.800781 44.90625 147.574219 44.621094 L 147.746094 44.328125 C 147.960938 44.453125 148.066406 44.601562 148.09375 44.648438 C 147.976562 44.414062 147.871094 43.5 148.203125 42.789062 C 148.363281 42.457031 148.574219 42.242188 148.878906 42.117188 C 152.894531 42.785156 161.011719 45.609375 164.535156 46.835938 C 168.882812 48.347656 180.539062 50.761719 181.035156 50.863281 L 181.71875 47.542969 C 181.601562 47.515625 169.789062 45.074219 165.648438 43.632812 C 163.585938 42.914062 161.453125 42.183594 159.386719 41.511719 C 159.351562 41.289062 159.375 40.953125 159.757812 40.527344 C 162.058594 41.214844 165.765625 41.992188 169.679688 42.8125 C 175.34375 43.996094 182.390625 45.472656 184.230469 46.589844 C 186.820312 48.164062 189.496094 48.964844 191.453125 49.546875 C 192.238281 49.78125 192.976562 50 193.339844 50.171875 C 194.152344 50.558594 197.941406 53.402344 201.136719 55.925781 L 203.238281 53.261719 C 202.765625 52.886719 201.484375 51.882812 200.046875 50.785156 C 201.207031 50.863281 202.121094 50.96875 202.492188 51.089844 C 203.519531 51.433594 204.96875 52.804688 205.628906 54.667969 C 206.472656 57.050781 213.542969 62.757812 216.542969 65.101562 L 218.628906 62.429688 C 217.476562 61.527344 216.28125 60.558594 215.132812 59.59375 C 215.464844 55.996094 216.929688 52.964844 219.308594 51.03125 C 219.328125 51.015625 221.457031 49.386719 222.953125 50.445312 C 223.542969 50.867188 222.625 54.550781 222.320312 55.761719 C 221.976562 57.132812 221.65625 58.429688 221.585938 59.503906 C 221.453125 61.59375 223.097656 64.945312 225.261719 69.109375 C 225.855469 70.246094 226.578125 71.636719 226.789062 72.203125 C 226.554688 73.9375 226.574219 78.867188 228.25 82.210938 C 229.03125 83.777344 241.429688 96.5 262.214844 106.324219 C 285.441406 117.304688 315.683594 151.597656 319.054688 155.472656 C 321.4375 158.210938 324.847656 160.953125 328.457031 163.859375 C 336.28125 170.152344 345.152344 177.285156 345.761719 186.222656 C 346.136719 191.691406 343.460938 197.375 337.578125 203.605469 C 316.632812 225.78125 284.027344 230.066406 277.65625 230.703125 C 275.714844 225.320312 273.90625 219.054688 273.449219 213.449219 C 272.65625 203.742188 277.246094 193.703125 279.640625 189.207031 Z M 282.90625 243.15625 C 282.242188 241.792969 280.621094 238.378906 278.894531 233.996094 C 283.304688 233.527344 293.890625 232.023438 306.011719 227.558594 C 303.160156 237.945312 291.886719 244.429688 289.816406 244.519531 C 288.863281 244.519531 285.90625 243.863281 282.90625 243.15625 Z M 282.90625 243.15625 " fill-opacity="1" fill-rule="nonzero"/></g><g mask="url(#b5f99bd368)"><g transform="matrix(1, 0, 0, 1, 93, 0)"><g clip-path="url(#b921b71a97)"><g clip-path="url(#0313fb5338)"><path fill="#ff66c4" d="M 142.058594 70.304688 C 142.058594 71.457031 142.03125 72.605469 141.976562 73.753906 C 141.917969 74.902344 141.835938 76.050781 141.722656 77.195312 C 141.609375 78.339844 141.46875 79.480469 141.300781 80.617188 C 141.132812 81.757812 140.933594 82.890625 140.710938 84.019531 C 140.484375 85.148438 140.234375 86.269531 139.953125 87.382812 C 139.675781 88.5 139.367188 89.609375 139.035156 90.710938 C 138.699219 91.8125 138.339844 92.902344 137.953125 93.984375 C 137.566406 95.070312 137.152344 96.140625 136.710938 97.203125 C 136.269531 98.265625 135.804688 99.320312 135.3125 100.359375 C 134.820312 101.398438 134.304688 102.425781 133.761719 103.441406 C 133.21875 104.453125 132.652344 105.457031 132.0625 106.441406 C 131.472656 107.429688 130.855469 108.402344 130.21875 109.355469 C 129.578125 110.3125 128.917969 111.253906 128.230469 112.179688 C 127.546875 113.101562 126.839844 114.007812 126.109375 114.898438 C 125.378906 115.785156 124.628906 116.65625 123.855469 117.511719 C 123.085938 118.363281 122.292969 119.195312 121.476562 120.007812 C 120.664062 120.820312 119.832031 121.613281 118.980469 122.386719 C 118.128906 123.160156 117.257812 123.910156 116.367188 124.640625 C 115.480469 125.371094 114.574219 126.078125 113.648438 126.765625 C 112.726562 127.449219 111.785156 128.109375 110.828125 128.75 C 109.875 129.390625 108.902344 130.003906 107.914062 130.597656 C 106.929688 131.1875 105.929688 131.753906 104.914062 132.296875 C 103.902344 132.839844 102.875 133.355469 101.835938 133.847656 C 100.792969 134.339844 99.742188 134.804688 98.679688 135.246094 C 97.617188 135.6875 96.546875 136.101562 95.460938 136.488281 C 94.378906 136.875 93.289062 137.234375 92.1875 137.570312 C 91.085938 137.902344 89.980469 138.210938 88.863281 138.488281 C 87.75 138.769531 86.625 139.023438 85.5 139.246094 C 84.371094 139.46875 83.238281 139.667969 82.101562 139.835938 C 80.960938 140.003906 79.820312 140.144531 78.675781 140.257812 C 77.53125 140.371094 76.386719 140.457031 75.238281 140.511719 C 74.089844 140.570312 72.9375 140.597656 71.789062 140.597656 C 70.640625 140.597656 69.488281 140.570312 68.339844 140.511719 C 67.191406 140.457031 66.046875 140.371094 64.902344 140.257812 C 63.757812 140.144531 62.617188 140.003906 61.476562 139.835938 C 60.339844 139.667969 59.207031 139.46875 58.082031 139.246094 C 56.953125 139.023438 55.832031 138.769531 54.714844 138.488281 C 53.597656 138.210938 52.492188 137.902344 51.390625 137.570312 C 50.289062 137.234375 49.199219 136.875 48.117188 136.488281 C 47.03125 136.101562 45.960938 135.6875 44.898438 135.246094 C 43.835938 134.804688 42.785156 134.339844 41.746094 133.847656 C 40.703125 133.355469 39.679688 132.839844 38.664062 132.296875 C 37.648438 131.753906 36.648438 131.1875 35.664062 130.597656 C 34.675781 130.003906 33.703125 129.390625 32.75 128.75 C 31.792969 128.109375 30.851562 127.449219 29.929688 126.765625 C 29.003906 126.078125 28.097656 125.371094 27.210938 124.640625 C 26.320312 123.910156 25.449219 123.160156 24.597656 122.386719 C 23.746094 121.613281 22.914062 120.820312 22.101562 120.007812 C 21.285156 119.195312 20.496094 118.363281 19.722656 117.511719 C 18.949219 116.65625 18.199219 115.785156 17.46875 114.898438 C 16.738281 114.007812 16.03125 113.101562 15.347656 112.179688 C 14.660156 111.253906 14 110.3125 13.359375 109.355469 C 12.722656 108.402344 12.105469 107.429688 11.515625 106.441406 C 10.925781 105.457031 10.359375 104.453125 9.816406 103.441406 C 9.273438 102.425781 8.757812 101.398438 8.265625 100.359375 C 7.773438 99.320312 7.308594 98.265625 6.867188 97.203125 C 6.425781 96.140625 6.011719 95.070312 5.625 93.984375 C 5.238281 92.902344 4.878906 91.808594 4.542969 90.710938 C 4.210938 89.609375 3.902344 88.5 3.625 87.382812 C 3.34375 86.269531 3.09375 85.148438 2.867188 84.019531 C 2.644531 82.890625 2.449219 81.757812 2.277344 80.617188 C 2.109375 79.480469 1.96875 78.339844 1.855469 77.195312 C 1.742188 76.050781 1.660156 74.902344 1.601562 73.753906 C 1.546875 72.605469 1.519531 71.457031 1.519531 70.304688 C 1.519531 69.15625 1.546875 68.003906 1.601562 66.855469 C 1.660156 65.707031 1.742188 64.558594 1.855469 63.414062 C 1.96875 62.269531 2.109375 61.128906 2.277344 59.992188 C 2.449219 58.851562 2.644531 57.71875 2.867188 56.59375 C 3.09375 55.464844 3.34375 54.339844 3.625 53.226562 C 3.902344 52.109375 4.210938 51 4.542969 49.902344 C 4.878906 48.800781 5.238281 47.707031 5.625 46.625 C 6.011719 45.542969 6.425781 44.46875 6.867188 43.40625 C 7.308594 42.34375 7.773438 41.292969 8.265625 40.25 C 8.757812 39.210938 9.273438 38.183594 9.816406 37.171875 C 10.359375 36.15625 10.925781 35.15625 11.515625 34.167969 C 12.105469 33.179688 12.722656 32.210938 13.359375 31.253906 C 14 30.296875 14.660156 29.355469 15.347656 28.433594 C 16.03125 27.507812 16.738281 26.601562 17.46875 25.710938 C 18.199219 24.824219 18.949219 23.953125 19.722656 23.101562 C 20.496094 22.246094 21.285156 21.414062 22.101562 20.601562 C 22.914062 19.789062 23.746094 18.996094 24.597656 18.222656 C 25.449219 17.449219 26.320312 16.699219 27.210938 15.96875 C 28.097656 15.238281 29.003906 14.53125 29.929688 13.847656 C 30.851562 13.160156 31.792969 12.5 32.75 11.859375 C 33.703125 11.222656 34.675781 10.605469 35.664062 10.015625 C 36.648438 9.421875 37.648438 8.855469 38.664062 8.3125 C 39.679688 7.769531 40.703125 7.253906 41.746094 6.761719 C 42.785156 6.269531 43.835938 5.804688 44.898438 5.363281 C 45.960938 4.925781 47.03125 4.511719 48.117188 4.121094 C 49.199219 3.734375 50.289062 3.375 51.390625 3.039062 C 52.492188 2.707031 53.597656 2.398438 54.714844 2.121094 C 55.832031 1.839844 56.953125 1.589844 58.082031 1.363281 C 59.207031 1.140625 60.339844 0.941406 61.476562 0.773438 C 62.617188 0.605469 63.757812 0.464844 64.902344 0.351562 C 66.046875 0.238281 67.191406 0.15625 68.339844 0.0976562 C 69.488281 0.0429688 70.640625 0.0117188 71.789062 0.0117188 C 72.9375 0.0117188 74.089844 0.0429688 75.238281 0.0976562 C 76.386719 0.15625 77.53125 0.238281 78.675781 0.351562 C 79.820312 0.464844 80.960938 0.605469 82.101562 0.773438 C 83.238281 0.941406 84.371094 1.140625 85.5 1.363281 C 86.625 1.589844 87.75 1.839844 88.863281 2.121094 C 89.980469 2.398438 91.085938 2.707031 92.1875 3.039062 C 93.289062 3.375 94.378906 3.734375 95.460938 4.121094 C 96.546875 4.511719 97.617188 4.925781 98.679688 5.363281 C 99.742188 5.804688 100.792969 6.269531 101.835938 6.761719 C 102.875 7.253906 103.902344 7.769531 104.914062 8.3125 C 105.929688 8.855469 106.929688 9.421875 107.914062 10.015625 C 108.902344 10.605469 109.875 11.222656 110.828125 11.859375 C 111.785156 12.5 112.726562 13.160156 113.648438 13.847656 C 114.574219 14.53125 115.480469 15.238281 116.367188 15.96875 C 117.257812 16.699219 118.128906 17.449219 118.980469 18.222656 C 119.832031 18.996094 120.664062 19.789062 121.476562 20.601562 C 122.292969 21.414062 123.085938 22.246094 123.855469 23.101562 C 124.628906 23.953125 125.378906 24.824219 126.109375 25.710938 C 126.839844 26.601562 127.546875 27.507812 128.230469 28.433594 C 128.917969 29.355469 129.578125 30.296875 130.21875 31.253906 C 130.855469 32.210938 131.472656 33.179688 132.0625 34.167969 C 132.652344 35.15625 133.21875 36.15625 133.761719 37.171875 C 134.304688 38.183594 134.820312 39.210938 135.3125 40.25 C 135.804688 41.292969 136.269531 42.34375 136.710938 43.40625 C 137.152344 44.46875 137.566406 45.542969 137.953125 46.625 C 138.339844 47.707031 138.699219 48.800781 139.035156 49.902344 C 139.367188 51 139.675781 52.109375 139.953125 53.226562 C 140.234375 54.339844 140.484375 55.464844 140.710938 56.59375 C 140.933594 57.71875 141.132812 58.851562 141.300781 59.992188 C 141.46875 61.128906 141.609375 62.269531 141.722656 63.414062 C 141.835938 64.558594 141.917969 65.707031 141.976562 66.855469 C 142.03125 68.003906 142.058594 69.15625 142.058594 70.304688 Z M 142.058594 70.304688 " fill-opacity="1" fill-rule="nonzero"/></g></g></g></g><g clip-path="url(#8e9a13366c)"><g clip-path="url(#531a352eb8)"><g clip-path="url(#7a4594f87b)"><path fill="#803362" d="M 141.539062 106.863281 C 140.492188 107.539062 139.277344 108.007812 137.929688 108.289062 C 136.859375 108.503906 135.839844 108.554688 134.917969 108.445312 C 134.652344 108.414062 134.390625 108.367188 134.128906 108.304688 C 131.925781 107.789062 130.027344 106.175781 129.183594 104.09375 C 128.339844 102.011719 128.585938 99.554688 129.824219 97.675781 C 130.988281 95.878906 132.976562 94.765625 134.988281 94.769531 C 137.28125 94.777344 139.382812 96.289062 140.007812 98.359375 C 140.335938 99.4375 140.207031 100.664062 139.683594 101.71875 C 139.125 102.816406 138.171875 103.628906 137.070312 103.96875 C 136.265625 104.203125 135.417969 103.753906 135.179688 102.957031 C 134.941406 102.15625 135.390625 101.316406 136.195312 101.082031 C 136.507812 100.992188 136.773438 100.742188 136.960938 100.386719 C 137.148438 100.015625 137.199219 99.582031 137.097656 99.238281 C 136.859375 98.4375 135.921875 97.808594 134.988281 97.804688 C 134.007812 97.796875 132.96875 98.414062 132.363281 99.347656 C 131.667969 100.398438 131.527344 101.84375 132.007812 103 C 132.484375 104.175781 133.574219 105.109375 134.808594 105.398438 C 135.515625 105.558594 136.359375 105.550781 137.316406 105.351562 C 138.289062 105.152344 139.152344 104.816406 139.890625 104.355469 C 141.832031 103.078125 143.003906 100.558594 142.734375 98.199219 C 142.476562 95.839844 140.855469 93.632812 138.625 92.5625 C 136.4375 91.515625 133.675781 91.578125 131.429688 92.726562 C 130.6875 93.109375 129.773438 92.808594 129.386719 92.070312 C 129 91.332031 129.296875 90.425781 130.042969 90.042969 C 133.128906 88.476562 136.90625 88.410156 139.933594 89.839844 C 143.09375 91.351562 145.378906 94.488281 145.75 97.867188 C 146.15625 101.375 144.453125 104.996094 141.539062 106.863281 Z M 190.195312 101.410156 C 189.824219 98.046875 187.523438 94.890625 184.378906 93.382812 C 181.351562 91.9375 177.574219 92.019531 174.488281 93.566406 C 173.746094 93.953125 173.449219 94.859375 173.835938 95.597656 C 174.222656 96.335938 175.136719 96.632812 175.878906 96.25 C 178.121094 95.121094 180.882812 95.058594 183.070312 96.089844 C 185.304688 97.160156 186.925781 99.367188 187.179688 101.722656 C 187.453125 104.085938 186.28125 106.601562 184.324219 107.847656 C 183.605469 108.3125 182.726562 108.648438 181.75 108.84375 C 180.8125 109.03125 179.96875 109.054688 179.242188 108.890625 C 178.011719 108.601562 176.902344 107.667969 176.441406 106.496094 C 175.964844 105.320312 176.105469 103.890625 176.800781 102.839844 C 177.417969 101.910156 178.441406 101.308594 179.421875 101.300781 C 180.375 101.304688 181.296875 101.933594 181.53125 102.730469 C 181.632812 103.074219 181.582031 103.507812 181.394531 103.878906 C 181.210938 104.234375 180.941406 104.484375 180.632812 104.574219 C 179.828125 104.808594 179.363281 105.648438 179.613281 106.449219 C 179.851562 107.25 180.699219 107.710938 181.503906 107.460938 C 182.605469 107.136719 183.558594 106.324219 184.117188 105.210938 C 184.640625 104.15625 184.773438 102.929688 184.441406 101.851562 C 183.820312 99.765625 181.703125 98.253906 179.421875 98.265625 C 177.410156 98.257812 175.425781 99.375 174.261719 101.167969 C 173.019531 103.050781 172.789062 105.507812 173.632812 107.605469 C 174.472656 109.703125 176.375 111.300781 178.578125 111.816406 C 178.839844 111.878906 179.085938 111.921875 179.367188 111.957031 C 180.304688 112.070312 181.308594 112.015625 182.378906 111.796875 C 183.726562 111.519531 184.941406 111.050781 185.988281 110.375 C 188.902344 108.519531 190.601562 104.917969 190.195312 101.410156 Z M 171.445312 121.261719 C 171.6875 121.734375 171.671875 122.28125 171.394531 122.71875 C 171.121094 123.160156 170.644531 123.449219 170.121094 123.449219 C 160.105469 123.617188 149.960938 123.160156 140 122.09375 C 140 122.09375 139.984375 122.089844 139.984375 122.089844 C 139.484375 122.03125 139.046875 121.726562 138.816406 121.273438 C 138.585938 120.820312 138.601562 120.273438 138.863281 119.832031 C 140.53125 116.980469 142.175781 114.628906 143.765625 112.351562 C 144.046875 111.960938 144.320312 111.550781 144.601562 111.160156 C 144.910156 110.726562 145.429688 110.472656 145.960938 110.523438 C 147.75 110.65625 149.542969 110.792969 151.28125 110.9375 C 156.695312 111.367188 161.828125 111.761719 166.691406 112.011719 C 167.320312 112.039062 167.855469 112.464844 168.054688 113.054688 C 168.804688 115.378906 169.746094 117.976562 171.445312 121.261719 Z M 167.675781 120.464844 C 166.71875 118.386719 166.035156 116.558594 165.480469 114.964844 C 160.890625 114.699219 156.085938 114.328125 151.03125 113.945312 C 149.558594 113.832031 148.082031 113.71875 146.574219 113.601562 C 146.460938 113.757812 146.347656 113.917969 146.230469 114.09375 C 145.066406 115.746094 143.878906 117.460938 142.6875 119.363281 C 150.972656 120.148438 159.351562 120.523438 167.675781 120.464844 Z M 167.675781 120.464844 " fill-opacity="1" fill-rule="nonzero"/></g></g></g><g clip-path="url(#29db9c8c54)"><g clip-path="url(#9a95027f50)"><g clip-path="url(#6a2738e85c)"><path fill="#ff66c4" d="M 155.078125 96.292969 C 155.078125 96.292969 155.09375 96.296875 155.089844 96.3125 L 155.078125 96.292969 C 155.0625 96.292969 155.0625 96.292969 155.078125 96.292969 Z M 155.671875 97.277344 C 155.664062 97.214844 155.65625 97.148438 155.652344 97.039062 C 155.652344 96.929688 155.636719 96.785156 155.578125 96.605469 C 155.566406 96.589844 155.566406 96.589844 155.554688 96.539062 L 155.585938 96.667969 C 155.546875 96.601562 155.492188 96.53125 155.453125 96.464844 C 155.4375 96.449219 155.457031 96.433594 155.457031 96.433594 C 155.417969 96.367188 155.363281 96.296875 155.308594 96.226562 L 155.285156 96.144531 C 155.226562 96.09375 155.207031 96.152344 155.082031 95.996094 C 155.121094 96.078125 154.992188 95.953125 154.988281 95.984375 C 154.988281 95.96875 154.976562 95.953125 154.960938 95.933594 C 154.917969 95.898438 154.84375 95.855469 154.769531 95.816406 C 154.695312 95.792969 154.632812 95.769531 154.601562 95.765625 C 154.601562 95.765625 154.632812 95.785156 154.660156 95.804688 C 154.691406 95.824219 154.75 95.863281 154.789062 95.914062 C 154.832031 95.949219 154.890625 96.003906 154.917969 96.054688 C 154.957031 96.105469 154.984375 96.140625 154.996094 96.175781 C 154.898438 96.066406 154.96875 96.15625 154.980469 96.1875 L 154.996094 96.191406 C 155.050781 96.257812 155.03125 96.273438 155.058594 96.308594 C 155.058594 96.308594 155.058594 96.308594 155.074219 96.308594 C 155.074219 96.308594 155.089844 96.3125 155.105469 96.328125 C 155.132812 96.347656 155.175781 96.398438 155.1875 96.433594 L 155.171875 96.445312 C 155.1875 96.449219 155.214844 96.484375 155.242188 96.519531 C 155.253906 96.535156 155.265625 96.566406 155.265625 96.582031 C 155.105469 96.3125 154.867188 96.078125 154.550781 95.949219 C 154.550781 95.949219 154.535156 95.945312 154.535156 95.945312 C 154.523438 95.882812 154.515625 95.832031 154.492188 95.769531 C 154.390625 95.675781 154.257812 95.597656 154.125 95.535156 C 153.746094 95.503906 153.355469 95.601562 153.03125 95.796875 C 152.761719 95.9375 152.53125 96.144531 152.355469 96.410156 C 152.253906 96.585938 152.207031 96.722656 152.144531 96.855469 L 151.953125 97.273438 C 151.824219 97.554688 151.691406 97.839844 151.550781 98.105469 L 151.519531 98.242188 C 151.292969 98.53125 151.144531 98.984375 150.914062 99.320312 L 150.945312 99.339844 C 150.898438 99.441406 150.871094 99.421875 150.851562 99.4375 C 150.609375 99.894531 150.347656 100.351562 150.089844 100.792969 L 149.988281 100.953125 C 149.953125 101.011719 149.929688 101.058594 149.890625 101.128906 C 149.8125 101.261719 149.761719 101.398438 149.714844 101.535156 C 149.632812 101.808594 149.628906 102.105469 149.675781 102.378906 C 149.6875 102.425781 149.707031 102.539062 149.742188 102.636719 C 149.777344 102.738281 149.828125 102.835938 149.839844 102.871094 C 149.949219 103.023438 150.074219 103.167969 150.203125 103.292969 C 150.34375 103.417969 150.492188 103.515625 150.65625 103.597656 L 150.640625 103.59375 C 150.683594 103.617188 150.746094 103.640625 150.789062 103.660156 C 150.789062 103.660156 150.789062 103.675781 150.789062 103.675781 C 150.972656 103.714844 151.261719 103.8125 151.503906 103.792969 L 151.488281 103.792969 C 151.835938 103.785156 152.167969 103.667969 152.445312 103.464844 C 152.582031 103.371094 152.707031 103.261719 152.800781 103.128906 C 152.855469 103.074219 152.898438 103 152.9375 102.925781 L 153.039062 102.75 C 153.316406 102.265625 153.597656 101.777344 153.910156 101.296875 C 154.214844 100.863281 154.441406 100.277344 154.761719 99.730469 C 154.851562 99.648438 155.367188 98.515625 155.378906 98.40625 L 155.285156 98.519531 C 155.375 98.3125 155.441406 98.160156 155.523438 98 C 155.605469 97.835938 155.644531 97.652344 155.65625 97.417969 L 155.667969 97.449219 C 155.703125 97.421875 155.691406 97.390625 155.671875 97.277344 Z M 155.457031 96.433594 C 155.472656 96.421875 155.457031 96.417969 155.457031 96.433594 Z M 154.980469 95.921875 C 154.933594 95.898438 154.949219 95.917969 154.980469 95.921875 C 155.007812 95.957031 155.035156 95.972656 155.035156 95.972656 C 155.003906 95.972656 154.992188 95.9375 154.980469 95.921875 Z M 154.980469 96.1875 L 154.964844 96.1875 C 154.992188 96.207031 154.996094 96.191406 154.980469 96.1875 Z M 160.789062 96.757812 L 160.804688 96.757812 C 160.804688 96.757812 160.789062 96.742188 160.789062 96.757812 C 160.789062 96.742188 160.789062 96.757812 160.789062 96.757812 Z M 161.472656 97.910156 C 161.476562 97.878906 161.464844 97.84375 161.445312 97.734375 C 161.429688 97.621094 161.433594 97.433594 161.320312 97.058594 C 161.308594 97.039062 161.308594 97.039062 161.28125 96.988281 C 161.292969 97.039062 161.304688 97.070312 161.3125 97.117188 C 161.273438 97.050781 161.21875 96.996094 161.164062 96.914062 C 161.152344 96.894531 161.152344 96.878906 161.167969 96.882812 C 161.128906 96.8125 161.058594 96.742188 161.003906 96.671875 L 160.964844 96.605469 C 160.890625 96.566406 160.882812 96.625 160.742188 96.46875 C 160.753906 96.5 160.738281 96.5 160.710938 96.480469 C 160.679688 96.460938 160.652344 96.441406 160.648438 96.457031 C 160.652344 96.441406 160.621094 96.421875 160.625 96.40625 C 160.582031 96.371094 160.488281 96.34375 160.414062 96.304688 C 160.335938 96.277344 160.277344 96.253906 160.246094 96.25 C 160.246094 96.25 160.273438 96.269531 160.304688 96.289062 C 160.347656 96.3125 160.394531 96.347656 160.453125 96.386719 C 160.554688 96.460938 160.648438 96.582031 160.675781 96.632812 C 160.5625 96.527344 160.644531 96.613281 160.65625 96.648438 L 160.671875 96.648438 C 160.742188 96.71875 160.726562 96.734375 160.753906 96.769531 C 160.753906 96.769531 160.753906 96.769531 160.769531 96.769531 C 160.769531 96.769531 160.785156 96.773438 160.800781 96.789062 C 160.828125 96.808594 160.871094 96.863281 160.882812 96.894531 L 160.863281 96.90625 C 160.894531 96.910156 160.933594 96.980469 160.972656 97.046875 C 160.800781 96.773438 160.542969 96.554688 160.207031 96.4375 C 160.207031 96.4375 160.191406 96.433594 160.191406 96.433594 C 160.183594 96.386719 160.160156 96.320312 160.132812 96.269531 C 160.074219 96.230469 160.015625 96.191406 159.941406 96.152344 C 159.878906 96.128906 159.804688 96.089844 159.730469 96.0625 C 159.332031 96.0625 158.953125 96.191406 158.640625 96.4375 C 158.382812 96.609375 158.148438 96.835938 158.019531 97.117188 L 157.972656 97.253906 L 157.929688 97.359375 L 157.851562 97.585938 L 157.6875 98.039062 C 157.574219 98.339844 157.460938 98.625 157.328125 98.921875 L 157.3125 99.0625 C 157.097656 99.382812 156.980469 99.839844 156.75 100.191406 L 156.777344 100.210938 C 156.734375 100.3125 156.722656 100.296875 156.703125 100.324219 C 156.46875 100.800781 156.238281 101.277344 155.992188 101.75 C 155.929688 101.871094 155.867188 101.988281 155.808594 102.105469 C 155.726562 102.238281 155.679688 102.390625 155.644531 102.527344 C 155.578125 102.816406 155.574219 103.117188 155.636719 103.390625 C 155.648438 103.441406 155.667969 103.550781 155.71875 103.652344 C 155.753906 103.75 155.804688 103.835938 155.816406 103.882812 C 156.050781 104.179688 156.351562 104.4375 156.699219 104.574219 L 156.683594 104.570312 C 156.746094 104.59375 156.789062 104.613281 156.851562 104.621094 C 156.851562 104.621094 156.851562 104.636719 156.851562 104.636719 C 157.050781 104.675781 157.347656 104.726562 157.601562 104.710938 L 157.585938 104.710938 C 157.9375 104.671875 158.273438 104.523438 158.539062 104.304688 C 158.660156 104.195312 158.789062 104.066406 158.867188 103.917969 L 158.929688 103.816406 L 158.988281 103.730469 L 159.089844 103.539062 C 159.355469 103.035156 159.621094 102.53125 159.90625 102 C 160.199219 101.53125 160.402344 100.910156 160.691406 100.347656 C 160.78125 100.261719 161.222656 99.058594 161.253906 98.953125 L 161.160156 99.082031 C 161.234375 98.855469 161.300781 98.691406 161.367188 98.539062 C 161.433594 98.375 161.488281 98.179688 161.46875 97.957031 Z M 161.1875 96.867188 C 161.203125 96.855469 161.1875 96.851562 161.1875 96.867188 Z M 160.65625 96.378906 C 160.628906 96.34375 160.644531 96.363281 160.65625 96.378906 C 160.6875 96.414062 160.714844 96.433594 160.714844 96.433594 C 160.703125 96.417969 160.671875 96.398438 160.65625 96.378906 Z M 160.691406 96.636719 L 160.675781 96.632812 C 160.6875 96.652344 160.6875 96.652344 160.691406 96.636719 Z M 166.496094 97.234375 L 166.511719 97.238281 C 166.511719 97.238281 166.511719 97.222656 166.496094 97.234375 C 166.496094 97.21875 166.496094 97.234375 166.496094 97.234375 Z M 167.058594 98.875 C 167.125 98.710938 167.164062 98.527344 167.160156 98.304688 L 167.171875 98.339844 C 167.175781 98.308594 167.164062 98.273438 167.140625 98.179688 C 167.125 98.066406 167.128906 97.894531 167.03125 97.535156 C 167.015625 97.519531 167.015625 97.519531 167.003906 97.46875 L 167.039062 97.597656 C 167 97.53125 166.957031 97.480469 166.902344 97.410156 C 166.886719 97.394531 166.90625 97.378906 166.90625 97.378906 C 166.867188 97.3125 166.8125 97.242188 166.753906 97.1875 L 166.730469 97.121094 C 166.671875 97.066406 166.648438 97.144531 166.523438 96.988281 C 166.5625 97.070312 166.433594 96.945312 166.445312 96.976562 C 166.449219 96.960938 166.433594 96.945312 166.421875 96.929688 C 166.378906 96.890625 166.304688 96.851562 166.226562 96.828125 C 166.152344 96.800781 166.089844 96.777344 166.058594 96.773438 C 166.058594 96.773438 166.089844 96.792969 166.117188 96.8125 C 166.148438 96.832031 166.207031 96.871094 166.246094 96.921875 C 166.289062 96.960938 166.332031 97.011719 166.375 97.0625 C 166.417969 97.101562 166.441406 97.152344 166.457031 97.167969 C 166.359375 97.0625 166.425781 97.148438 166.4375 97.183594 L 166.453125 97.183594 C 166.507812 97.253906 166.492188 97.265625 166.519531 97.300781 C 166.519531 97.300781 166.519531 97.300781 166.535156 97.304688 C 166.535156 97.304688 166.550781 97.304688 166.5625 97.324219 C 166.59375 97.34375 166.632812 97.394531 166.644531 97.425781 L 166.628906 97.441406 C 166.660156 97.445312 166.683594 97.511719 166.722656 97.578125 C 166.5625 97.324219 166.320312 97.105469 166.019531 96.972656 C 166.019531 96.972656 166.003906 96.972656 166.003906 96.972656 C 165.996094 96.910156 165.984375 96.859375 165.960938 96.792969 C 165.863281 96.703125 165.742188 96.640625 165.609375 96.578125 C 165.230469 96.550781 164.855469 96.644531 164.546875 96.84375 C 164.277344 96.96875 164.050781 97.164062 163.875 97.425781 C 163.820312 97.496094 163.792969 97.589844 163.75 97.664062 L 163.664062 97.871094 L 163.484375 98.292969 L 163.132812 99.128906 L 163.117188 99.269531 C 162.90625 99.574219 162.804688 100.019531 162.605469 100.355469 L 162.636719 100.375 C 162.589844 100.480469 162.578125 100.464844 162.558594 100.476562 C 162.363281 100.941406 162.175781 101.421875 161.980469 101.886719 C 161.933594 102.007812 161.890625 102.109375 161.84375 102.230469 C 161.820312 102.277344 161.796875 102.351562 161.773438 102.425781 C 161.75 102.488281 161.738281 102.566406 161.714844 102.625 C 161.652344 102.898438 161.664062 103.183594 161.730469 103.445312 C 161.722656 103.492188 161.757812 103.605469 161.796875 103.6875 C 161.832031 103.785156 161.882812 103.871094 161.894531 103.921875 C 162.113281 104.199219 162.402344 104.453125 162.714844 104.601562 L 162.699219 104.597656 C 162.746094 104.621094 162.804688 104.640625 162.851562 104.664062 C 162.851562 104.664062 162.847656 104.679688 162.847656 104.679688 C 163.035156 104.71875 163.308594 104.796875 163.546875 104.792969 L 163.53125 104.792969 C 163.863281 104.785156 164.195312 104.667969 164.457031 104.476562 C 164.730469 104.292969 164.9375 104.03125 165.066406 103.75 C 165.175781 103.496094 165.285156 103.242188 165.378906 102.984375 C 165.488281 102.730469 165.597656 102.492188 165.722656 102.238281 C 165.984375 101.78125 166.148438 101.203125 166.417969 100.671875 C 166.488281 100.585938 166.941406 99.476562 166.96875 99.367188 L 166.875 99.484375 C 166.917969 99.378906 166.945312 99.289062 166.988281 99.214844 C 166.992188 99.027344 167.015625 98.964844 167.058594 98.875 Z M 166.878906 97.34375 C 166.894531 97.332031 166.894531 97.332031 166.878906 97.34375 Z M 166.398438 96.863281 C 166.367188 96.84375 166.382812 96.859375 166.398438 96.863281 C 166.425781 96.898438 166.453125 96.917969 166.453125 96.917969 C 166.441406 96.898438 166.425781 96.882812 166.398438 96.863281 Z M 166.414062 97.117188 L 166.398438 97.113281 C 166.414062 97.132812 166.414062 97.132812 166.414062 97.117188 Z M 166.414062 97.117188 " fill-opacity="1" fill-rule="nonzero"/></g></g></g><g fill="#ff66c4" fill-opacity="1"><g transform="translate(79.841188, 269.157926)"><g><path d="M 18.671875 -39.886719 L 5.242188 -39.886719 C 3.144531 -39.886719 1.648438 -38.140625 1.648438 -36.292969 L 1.648438 -3.792969 C 1.648438 -1.996094 3.144531 -0.148438 5.242188 -0.148438 L 18.671875 -0.148438 C 26.507812 -0.148438 32.5 -6.488281 32.5 -14.027344 L 32.5 -26.058594 C 32.5 -33.597656 26.507812 -39.886719 18.671875 -39.886719 Z M 20.316406 -18.820312 C 20.316406 -16.722656 18.769531 -15.277344 16.722656 -15.277344 L 14.328125 -15.277344 C 13.976562 -15.277344 13.628906 -15.523438 13.628906 -16.125 L 13.628906 -23.910156 C 13.628906 -24.5625 13.976562 -24.859375 14.328125 -24.859375 L 16.722656 -24.859375 C 18.769531 -24.859375 20.316406 -23.363281 20.316406 -21.214844 Z M 20.316406 -18.820312 "/></g></g></g><g fill="#ff66c4" fill-opacity="1"><g transform="translate(113.585125, 269.157926)"><g><path d="M 5.191406 0.0507812 L 11.382812 0.0507812 C 13.480469 0.0507812 14.976562 -1.648438 14.976562 -3.542969 L 14.976562 -36.34375 C 14.976562 -38.4375 13.480469 -39.9375 11.382812 -39.9375 L 5.191406 -39.9375 C 3.246094 -39.9375 1.648438 -38.4375 1.648438 -36.34375 L 1.648438 -3.542969 C 1.648438 -1.648438 3.246094 0.0507812 5.191406 0.0507812 Z M 5.191406 0.0507812 "/></g></g></g><g fill="#ff66c4" fill-opacity="1"><g transform="translate(130.207502, 269.157926)"><g><path d="M 31.5 -27.957031 L 31.5 -36.792969 C 31.5 -38.488281 30.152344 -39.835938 28.554688 -39.835938 L 4.691406 -39.835938 C 3.046875 -39.835938 1.699219 -38.488281 1.699219 -36.792969 L 1.699219 -30.003906 C 1.699219 -28.355469 3.046875 -27.007812 4.691406 -27.007812 L 13.976562 -27.007812 C 14.277344 -27.007812 14.578125 -26.65625 14.578125 -26.359375 C 14.578125 -26.160156 14.527344 -26.007812 14.425781 -25.910156 L 2.394531 -14.175781 C 1.945312 -13.679688 1.648438 -13.277344 1.648438 -12.429688 L 1.648438 -3.09375 C 1.648438 -1.496094 2.996094 -0.101562 4.644531 -0.101562 L 28.554688 -0.101562 C 30.152344 -0.101562 31.5 -1.496094 31.5 -3.09375 L 31.5 -9.933594 C 31.5 -11.632812 30.152344 -12.980469 28.554688 -12.980469 L 17.570312 -12.980469 L 30.601562 -25.757812 C 31.25 -26.40625 31.5 -27.207031 31.5 -27.957031 Z M 31.5 -27.957031 "/></g></g></g><g fill="#ff66c4" fill-opacity="1"><g transform="translate(163.352437, 269.157926)"><g><path d="M 31.5 -27.957031 L 31.5 -36.792969 C 31.5 -38.488281 30.152344 -39.835938 28.554688 -39.835938 L 4.691406 -39.835938 C 3.046875 -39.835938 1.699219 -38.488281 1.699219 -36.792969 L 1.699219 -30.003906 C 1.699219 -28.355469 3.046875 -27.007812 4.691406 -27.007812 L 13.976562 -27.007812 C 14.277344 -27.007812 14.578125 -26.65625 14.578125 -26.359375 C 14.578125 -26.160156 14.527344 -26.007812 14.425781 -25.910156 L 2.394531 -14.175781 C 1.945312 -13.679688 1.648438 -13.277344 1.648438 -12.429688 L 1.648438 -3.09375 C 1.648438 -1.496094 2.996094 -0.101562 4.644531 -0.101562 L 28.554688 -0.101562 C 30.152344 -0.101562 31.5 -1.496094 31.5 -3.09375 L 31.5 -9.933594 C 31.5 -11.632812 30.152344 -12.980469 28.554688 -12.980469 L 17.570312 -12.980469 L 30.601562 -25.757812 C 31.25 -26.40625 31.5 -27.207031 31.5 -27.957031 Z M 31.5 -27.957031 "/></g></g></g><g fill="#ff66c4" fill-opacity="1"><g transform="translate(196.497372, 269.157926)"><g><path d="M 39.585938 -35.941406 C 39.886719 -36.191406 40.1875 -36.839844 40.1875 -37.492188 C 40.1875 -39.039062 38.988281 -39.988281 37.691406 -39.988281 L 28.65625 -39.988281 C 28.054688 -39.988281 27.554688 -39.6875 27.105469 -39.039062 L 20.515625 -29.953125 L 14.277344 -39.039062 C 13.777344 -39.835938 12.980469 -39.988281 12.429688 -39.988281 L 3.34375 -39.988281 C 2.046875 -39.988281 0.847656 -39.039062 0.847656 -37.492188 C 0.847656 -36.839844 1.148438 -36.191406 1.496094 -35.941406 L 13.328125 -19.019531 L 13.328125 -2.84375 C 13.328125 -1.199219 14.925781 0 16.472656 0 L 24.5625 0 C 26.109375 0 27.757812 -1.199219 27.757812 -2.84375 L 27.757812 -19.019531 Z M 39.585938 -35.941406 "/></g></g></g><g fill="#ff914d" fill-opacity="1"><g transform="translate(113.537339, 316.963787)"><g><path d="M 18.671875 -39.886719 L 5.242188 -39.886719 C 3.144531 -39.886719 1.648438 -38.140625 1.648438 -36.292969 L 1.648438 -3.792969 C 1.648438 -1.996094 3.144531 -0.148438 5.242188 -0.148438 L 18.671875 -0.148438 C 26.507812 -0.148438 32.5 -6.488281 32.5 -14.027344 L 32.5 -26.058594 C 32.5 -33.597656 26.507812 -39.886719 18.671875 -39.886719 Z M 20.316406 -18.820312 C 20.316406 -16.722656 18.769531 -15.277344 16.722656 -15.277344 L 14.328125 -15.277344 C 13.976562 -15.277344 13.628906 -15.523438 13.628906 -16.125 L 13.628906 -23.910156 C 13.628906 -24.5625 13.976562 -24.859375 14.328125 -24.859375 L 16.722656 -24.859375 C 18.769531 -24.859375 20.316406 -23.363281 20.316406 -21.214844 Z M 20.316406 -18.820312 "/></g></g></g><g fill="#ff914d" fill-opacity="1"><g transform="translate(147.281276, 316.963787)"><g><path d="M 15.574219 -29.105469 L 25.710938 -29.105469 C 27.15625 -29.105469 28.355469 -30.300781 28.355469 -31.699219 L 28.355469 -37.289062 C 28.355469 -38.738281 27.15625 -39.886719 25.710938 -39.886719 L 5.292969 -39.886719 C 3.246094 -39.886719 1.648438 -38.289062 1.648438 -37.140625 L 1.648438 -4.644531 C 1.648438 -1.699219 3.246094 -0.101562 5.292969 -0.101562 L 25.710938 -0.101562 C 27.15625 -0.101562 28.355469 -1.246094 28.355469 -2.695312 L 28.355469 -8.285156 C 28.355469 -9.734375 27.15625 -10.984375 25.710938 -10.984375 L 15.574219 -10.984375 C 15.375 -10.984375 15.226562 -11.132812 15.226562 -11.332031 L 15.226562 -14.527344 C 15.226562 -14.726562 15.375 -14.875 15.574219 -14.875 L 22.914062 -14.875 C 24.210938 -14.875 25.308594 -15.925781 25.308594 -17.273438 L 25.308594 -22.714844 C 25.308594 -24.011719 24.210938 -25.109375 22.914062 -25.109375 L 15.574219 -25.109375 C 15.375 -25.109375 15.226562 -25.261719 15.226562 -25.410156 L 15.226562 -28.703125 C 15.226562 -28.855469 15.375 -29.105469 15.574219 -29.105469 Z M 15.574219 -29.105469 "/></g></g></g><g fill="#ff914d" fill-opacity="1"><g transform="translate(177.281435, 316.963787)"><g><path d="M 12.332031 -2.195312 C 12.980469 -0.949219 14.226562 0 15.425781 0 L 23.113281 0 C 24.660156 0 25.859375 -0.949219 26.507812 -2.195312 L 37.890625 -35.695312 C 37.890625 -35.695312 38.339844 -37.140625 37.589844 -38.488281 C 36.992188 -39.738281 36.042969 -39.988281 34.792969 -39.988281 L 28.054688 -39.988281 C 26.207031 -39.988281 25.558594 -38.789062 24.660156 -36.640625 L 20.019531 -24.011719 C 20.019531 -24.011719 19.917969 -23.613281 19.417969 -23.613281 C 18.921875 -23.613281 18.820312 -24.011719 18.820312 -24.011719 L 14.226562 -36.640625 C 13.277344 -38.789062 12.679688 -39.988281 10.78125 -39.988281 L 3.742188 -39.988281 C 2.796875 -39.988281 1.847656 -39.738281 1.246094 -38.488281 C 0.550781 -37.140625 0.949219 -35.695312 0.949219 -35.695312 Z M 12.332031 -2.195312 "/></g></g></g><g fill="#ff914d" fill-opacity="1"><g transform="translate(216.166826, 316.963787)"><g><path d="M 17.472656 -41.734375 C 16.875 -41.734375 0.847656 -42.582031 0.847656 -28.703125 C 0.847656 -20.019531 7.140625 -15.027344 15.574219 -15.027344 L 18.570312 -15.027344 C 20.21875 -15.027344 21.566406 -14.027344 21.566406 -12.378906 C 21.566406 -10.78125 20.21875 -9.632812 18.820312 -9.632812 C 18.019531 -9.632812 16.671875 -9.882812 16.175781 -11.882812 C 16.023438 -12.28125 15.824219 -12.53125 15.074219 -12.378906 L 1.699219 -10.78125 C 0.949219 -10.632812 0.796875 -10.132812 1.199219 -9.386719 C 3.246094 -3.695312 6.890625 1.796875 19.371094 1.796875 C 25.660156 1.796875 33.597656 -1.648438 33.597656 -12.628906 C 33.597656 -26.160156 21.664062 -25.160156 17.472656 -25.160156 C 16.175781 -25.160156 13.679688 -25.460938 13.679688 -27.855469 C 13.679688 -29.800781 15.324219 -30.652344 16.425781 -30.652344 C 17.222656 -30.652344 18.570312 -30.050781 19.070312 -28.703125 C 19.269531 -28.105469 19.71875 -27.855469 20.21875 -27.855469 L 32.449219 -29.554688 C 32.996094 -29.601562 33.398438 -30.152344 33.246094 -30.902344 C 32.699219 -33.597656 30.300781 -41.734375 17.472656 -41.734375 Z M 17.472656 -41.734375 "/></g></g></g></svg>